<svg id="visual" viewBox="0 0 900 600" width="900" height="600" xmlns="http://www.w3.org/2000/svg" xmlns:xlink="http://www.w3.org/1999/xlink" version="1.1"><g stroke-width="1" stroke-linejoin="bevel"><path d="M456.3 309.2L466.7 300.9L466.1 285.9Z" fill="#f7caca" stroke="#f7caca"></path><path d="M466.1 285.9L414.3 323.9L456.3 309.2Z" fill="#fadada" stroke="#fadada"></path><path d="M414.3 323.9L471.7 345.2L456.3 309.2Z" fill="#fce4e4" stroke="#fce4e4"></path><path d="M456.3 309.2L478.7 343.1L466.7 300.9Z" fill="#fde9e9" stroke="#fde9e9"></path><path d="M521.4 331.1L493.1 243.6L466.1 285.9Z" fill="#fde9e9" stroke="#fde9e9"></path><path d="M471.7 345.2L478.7 343.1L456.3 309.2Z" fill="#fce4e4" stroke="#fce4e4"></path><path d="M439.7 225.8L403.3 324.1L414.3 323.9Z" fill="#f7caca" stroke="#f7caca"></path><path d="M414.3 323.9L438.7 430.4L471.7 345.2Z" fill="#fef4f4" stroke="#fef4f4"></path><path d="M521.4 331.1L466.1 285.9L466.7 300.9Z" fill="#fde9e9" stroke="#fde9e9"></path><path d="M466.1 285.9L439.7 225.8L414.3 323.9Z" fill="#f9d4d4" stroke="#f9d4d4"></path><path d="M493.1 243.6L439.7 225.8L466.1 285.9Z" fill="#fffafa" stroke="#fffafa"></path><path d="M493.1 243.6L473.3 218.8L439.7 225.8Z" fill="#fde9e9" stroke="#fde9e9"></path><path d="M558.4 335.9L521.4 331.1L560.1 394.2Z" fill="#ffffff" stroke="#ffffff"></path><path d="M478.7 343.1L521.4 331.1L466.7 300.9Z" fill="#fef4f4" stroke="#fef4f4"></path><path d="M363.9 305.9L378.6 333.9L403.3 324.1Z" fill="#ffffff" stroke="#ffffff"></path><path d="M403.3 324.1L372.6 377.1L414.3 323.9Z" fill="#fde9e9" stroke="#fde9e9"></path><path d="M439.7 225.8L363.9 305.9L403.3 324.1Z" fill="#fadada" stroke="#fadada"></path><path d="M521.4 331.1L558.1 305.1L493.1 243.6Z" fill="#f8cfcf" stroke="#f8cfcf"></path><path d="M493.1 243.6L497.7 194.6L473.3 218.8Z" fill="#fadada" stroke="#fadada"></path><path d="M529.4 188.8L497.7 194.6L493.1 243.6Z" fill="#ffffff" stroke="#ffffff"></path><path d="M440.7 140.5L389.3 181.6L439.7 225.8Z" fill="#f9d4d4" stroke="#f9d4d4"></path><path d="M332.9 326.1L367.6 366.4L378.6 333.9Z" fill="#ffffff" stroke="#ffffff"></path><path d="M378.6 333.9L372.6 377.1L403.3 324.1Z" fill="#fdefef" stroke="#fdefef"></path><path d="M560.1 394.2L521.4 331.1L478.7 343.1Z" fill="#fde9e9" stroke="#fde9e9"></path><path d="M521.4 331.1L558.4 335.9L558.1 305.1Z" fill="#f8cfcf" stroke="#f8cfcf"></path><path d="M438.7 430.4L478.7 343.1L471.7 345.2Z" fill="#fdefef" stroke="#fdefef"></path><path d="M367.6 366.4L372.6 377.1L378.6 333.9Z" fill="#ffffff" stroke="#ffffff"></path><path d="M389.3 181.6L364.9 217.6L439.7 225.8Z" fill="#fffafa" stroke="#fffafa"></path><path d="M439.7 225.8L364.9 217.6L363.9 305.9Z" fill="#f7caca" stroke="#f7caca"></path><path d="M571.8 307.2L560.4 242.6L558.1 305.1Z" fill="#fbdfdf" stroke="#fbdfdf"></path><path d="M558.1 305.1L560.4 242.6L493.1 243.6Z" fill="#ffffff" stroke="#ffffff"></path><path d="M558.4 335.9L571.8 307.2L558.1 305.1Z" fill="#fde9e9" stroke="#fde9e9"></path><path d="M322.9 247.8L332.9 326.1L363.9 305.9Z" fill="#fef4f4" stroke="#fef4f4"></path><path d="M363.9 305.9L332.9 326.1L378.6 333.9Z" fill="#fdefef" stroke="#fdefef"></path><path d="M367.6 366.4L341.2 403.5L372.6 377.1Z" fill="#ffffff" stroke="#ffffff"></path><path d="M440.7 140.5L439.7 225.8L473.3 218.8Z" fill="#fffafa" stroke="#fffafa"></path><path d="M560.4 242.6L529.4 188.8L493.1 243.6Z" fill="#ffffff" stroke="#ffffff"></path><path d="M440.7 140.5L385.3 162.5L389.3 181.6Z" fill="#fce4e4" stroke="#fce4e4"></path><path d="M614.8 236.6L572.8 230.9L560.4 242.6Z" fill="#f9d4d4" stroke="#f9d4d4"></path><path d="M560.4 242.6L572.8 230.9L529.4 188.8Z" fill="#fef4f4" stroke="#fef4f4"></path><path d="M372.6 377.1L438.7 430.4L414.3 323.9Z" fill="#fce4e4" stroke="#fce4e4"></path><path d="M319.2 183.5L322.9 247.8L364.9 217.6Z" fill="#fbdfdf" stroke="#fbdfdf"></path><path d="M364.9 217.6L322.9 247.8L363.9 305.9Z" fill="#f9d4d4" stroke="#f9d4d4"></path><path d="M322.9 247.8L313.2 330.1L332.9 326.1Z" fill="#fffafa" stroke="#fffafa"></path><path d="M332.9 326.1L309.2 353.2L367.6 366.4Z" fill="#fde9e9" stroke="#fde9e9"></path><path d="M372.6 377.1L404.9 438.4L438.7 430.4Z" fill="#ffffff" stroke="#ffffff"></path><path d="M614.8 236.6L581.1 224.8L572.8 230.9Z" fill="#fffafa" stroke="#fffafa"></path><path d="M572.8 230.9L581.1 224.8L529.4 188.8Z" fill="#fadada" stroke="#fadada"></path><path d="M438.7 430.4L560.1 394.2L478.7 343.1Z" fill="#fce4e4" stroke="#fce4e4"></path><path d="M558.4 335.9L635.2 336.9L571.8 307.2Z" fill="#ffffff" stroke="#ffffff"></path><path d="M440.7 140.5L473.3 218.8L497.7 194.6Z" fill="#ffffff" stroke="#ffffff"></path><path d="M389.3 181.6L319.2 183.5L364.9 217.6Z" fill="#fdefef" stroke="#fdefef"></path><path d="M358.9 427.5L404.9 438.4L372.6 377.1Z" fill="#fffafa" stroke="#fffafa"></path><path d="M472.7 102.2L440.7 140.5L497.7 194.6Z" fill="#fbdfdf" stroke="#fbdfdf"></path><path d="M228.2 315.9L309.2 353.2L313.2 330.1Z" fill="#fbdfdf" stroke="#fbdfdf"></path><path d="M313.2 330.1L309.2 353.2L332.9 326.1Z" fill="#f7caca" stroke="#f7caca"></path><path d="M309.2 353.2L341.2 403.5L367.6 366.4Z" fill="#fdefef" stroke="#fdefef"></path><path d="M341.2 403.5L358.9 427.5L372.6 377.1Z" fill="#fef4f4" stroke="#fef4f4"></path><path d="M421.9 498.7L433.3 464.4L404.9 438.4Z" fill="#fef4f4" stroke="#fef4f4"></path><path d="M404.9 438.4L433.3 464.4L438.7 430.4Z" fill="#fce4e4" stroke="#fce4e4"></path><path d="M438.7 430.4L479.1 466.7L560.1 394.2Z" fill="#fdefef" stroke="#fdefef"></path><path d="M571.8 307.2L614.8 236.6L560.4 242.6Z" fill="#fadada" stroke="#fadada"></path><path d="M581.1 224.8L573.4 169.5L529.4 188.8Z" fill="#fce4e4" stroke="#fce4e4"></path><path d="M635.2 336.9L614.8 236.6L571.8 307.2Z" fill="#fdefef" stroke="#fdefef"></path><path d="M385.3 162.5L319.2 183.5L389.3 181.6Z" fill="#f8cfcf" stroke="#f8cfcf"></path><path d="M322.9 247.8L259.2 235.8L313.2 330.1Z" fill="#fde9e9" stroke="#fde9e9"></path><path d="M314.2 140.3L319.2 183.5L385.3 162.5Z" fill="#fadada" stroke="#fadada"></path><path d="M535.1 469.4L579.1 412.5L560.1 394.2Z" fill="#fef4f4" stroke="#fef4f4"></path><path d="M628.4 381.4L635.2 336.9L558.4 335.9Z" fill="#fdefef" stroke="#fdefef"></path><path d="M614.8 236.6L573.4 169.5L581.1 224.8Z" fill="#fce4e4" stroke="#fce4e4"></path><path d="M479.1 98.5L472.7 102.2L497.7 194.6Z" fill="#ffffff" stroke="#ffffff"></path><path d="M341.2 403.5L332.9 421.2L358.9 427.5Z" fill="#f9d4d4" stroke="#f9d4d4"></path><path d="M358.9 427.5L368.3 458.5L404.9 438.4Z" fill="#f8cfcf" stroke="#f8cfcf"></path><path d="M286.6 413.2L332.9 421.2L341.2 403.5Z" fill="#fffafa" stroke="#fffafa"></path><path d="M433.3 464.4L479.1 466.7L438.7 430.4Z" fill="#fef4f4" stroke="#fef4f4"></path><path d="M332.9 421.2L368.3 458.5L358.9 427.5Z" fill="#fadada" stroke="#fadada"></path><path d="M621.4 391.2L558.4 335.9L560.1 394.2Z" fill="#fffafa" stroke="#fffafa"></path><path d="M479.1 98.5L497.7 194.6L542.1 111.3Z" fill="#f7caca" stroke="#f7caca"></path><path d="M346.6 107.3L314.2 140.3L385.3 162.5Z" fill="#fdefef" stroke="#fdefef"></path><path d="M479.1 466.7L535.1 469.4L560.1 394.2Z" fill="#fce4e4" stroke="#fce4e4"></path><path d="M616.8 421.4L621.4 391.2L579.1 412.5Z" fill="#fce4e4" stroke="#fce4e4"></path><path d="M579.1 412.5L621.4 391.2L560.1 394.2Z" fill="#fadada" stroke="#fadada"></path><path d="M621.4 391.2L628.4 381.4L558.4 335.9Z" fill="#fbdfdf" stroke="#fbdfdf"></path><path d="M542.1 111.3L497.7 194.6L529.4 188.8Z" fill="#fdefef" stroke="#fdefef"></path><path d="M346.6 107.3L385.3 162.5L419.9 77.2Z" fill="#fdefef" stroke="#fdefef"></path><path d="M319.2 183.5L259.2 235.8L322.9 247.8Z" fill="#ffffff" stroke="#ffffff"></path><path d="M309.2 353.2L286.6 413.2L341.2 403.5Z" fill="#f8cfcf" stroke="#f8cfcf"></path><path d="M613.8 88.5L542.1 111.3L573.4 169.5Z" fill="#fbdfdf" stroke="#fbdfdf"></path><path d="M573.4 169.5L542.1 111.3L529.4 188.8Z" fill="#fbdfdf" stroke="#fbdfdf"></path><path d="M457.7 515.5L495.1 493.8L479.1 466.7Z" fill="#ffffff" stroke="#ffffff"></path><path d="M479.1 466.7L495.1 493.8L535.1 469.4Z" fill="#ffffff" stroke="#ffffff"></path><path d="M439.7 507.7L479.1 466.7L433.3 464.4Z" fill="#fde9e9" stroke="#fde9e9"></path><path d="M250.5 405.5L286.6 413.2L309.2 353.2Z" fill="#fffafa" stroke="#fffafa"></path><path d="M332.9 421.2L295.2 445.4L368.3 458.5Z" fill="#ffffff" stroke="#ffffff"></path><path d="M385.3 162.5L440.7 140.5L419.9 77.2Z" fill="#fde9e9" stroke="#fde9e9"></path><path d="M319.2 183.5L273.6 177.8L259.2 235.8Z" fill="#f7caca" stroke="#f7caca"></path><path d="M350.6 504.7L421.9 498.7L368.3 458.5Z" fill="#fbdfdf" stroke="#fbdfdf"></path><path d="M368.3 458.5L421.9 498.7L404.9 438.4Z" fill="#fde9e9" stroke="#fde9e9"></path><path d="M611.2 482.5L616.8 421.4L579.1 412.5Z" fill="#f8cfcf" stroke="#f8cfcf"></path><path d="M646.2 397.4L656.2 368.1L628.4 381.4Z" fill="#f7caca" stroke="#f7caca"></path><path d="M570.4 486.7L579.1 412.5L535.1 469.4Z" fill="#fce4e4" stroke="#fce4e4"></path><path d="M314.2 140.3L294.6 156.6L319.2 183.5Z" fill="#f8cfcf" stroke="#f8cfcf"></path><path d="M294.6 156.6L273.6 177.8L319.2 183.5Z" fill="#ffffff" stroke="#ffffff"></path><path d="M421.9 498.7L439.7 507.7L433.3 464.4Z" fill="#f7caca" stroke="#f7caca"></path><path d="M656.2 368.1L635.2 336.9L628.4 381.4Z" fill="#fbdfdf" stroke="#fbdfdf"></path><path d="M656.2 368.1L658.2 354.2L635.2 336.9Z" fill="#fde9e9" stroke="#fde9e9"></path><path d="M635.2 336.9L674.8 284.8L614.8 236.6Z" fill="#f7caca" stroke="#f7caca"></path><path d="M419.9 77.2L440.7 140.5L472.7 102.2Z" fill="#fde9e9" stroke="#fde9e9"></path><path d="M292.6 95.5L248.2 153.6L294.6 156.6Z" fill="#fbdfdf" stroke="#fbdfdf"></path><path d="M646.2 397.4L628.4 381.4L621.4 391.2Z" fill="#fde9e9" stroke="#fde9e9"></path><path d="M508.7 516.8L513.4 502.5L495.1 493.8Z" fill="#f9d4d4" stroke="#f9d4d4"></path><path d="M495.1 493.8L513.4 502.5L535.1 469.4Z" fill="#fde9e9" stroke="#fde9e9"></path><path d="M286.6 413.2L295.2 445.4L332.9 421.2Z" fill="#fce4e4" stroke="#fce4e4"></path><path d="M421.9 498.7L399.9 529.8L439.7 507.7Z" fill="#f7caca" stroke="#f7caca"></path><path d="M696.9 451.4L640.8 405.5L616.8 421.4Z" fill="#fadada" stroke="#fadada"></path><path d="M616.8 421.4L640.8 405.5L621.4 391.2Z" fill="#fadada" stroke="#fadada"></path><path d="M346.6 107.3L325.9 115.3L314.2 140.3Z" fill="#f9d4d4" stroke="#f9d4d4"></path><path d="M294.6 156.6L248.2 153.6L273.6 177.8Z" fill="#fde9e9" stroke="#fde9e9"></path><path d="M435.7 56.3L472.7 102.2L479.1 98.5Z" fill="#f8cfcf" stroke="#f8cfcf"></path><path d="M435.7 56.3L419.9 77.2L472.7 102.2Z" fill="#f9d4d4" stroke="#f9d4d4"></path><path d="M346.6 107.3L350.9 84.5L325.9 115.3Z" fill="#f8cfcf" stroke="#f8cfcf"></path><path d="M640.8 405.5L646.2 397.4L621.4 391.2Z" fill="#fffafa" stroke="#fffafa"></path><path d="M221.8 187.8L239.5 234.9L259.2 235.8Z" fill="#f8cfcf" stroke="#f8cfcf"></path><path d="M259.2 235.8L228.2 315.9L313.2 330.1Z" fill="#fef4f4" stroke="#fef4f4"></path><path d="M399.9 529.8L457.7 515.5L439.7 507.7Z" fill="#fadada" stroke="#fadada"></path><path d="M439.7 507.7L457.7 515.5L479.1 466.7Z" fill="#fde9e9" stroke="#fde9e9"></path><path d="M673.8 328.1L635.2 336.9L658.2 354.2Z" fill="#fffafa" stroke="#fffafa"></path><path d="M673.8 328.1L674.8 284.8L635.2 336.9Z" fill="#fdefef" stroke="#fdefef"></path><path d="M614.8 236.6L627.4 150.3L573.4 169.5Z" fill="#f9d4d4" stroke="#f9d4d4"></path><path d="M286.6 413.2L288.8 445.4L295.2 445.4Z" fill="#fde9e9" stroke="#fde9e9"></path><path d="M321.6 502.8L350.6 504.7L368.3 458.5Z" fill="#f8cfcf" stroke="#f8cfcf"></path><path d="M250.5 405.5L288.8 445.4L286.6 413.2Z" fill="#fce4e4" stroke="#fce4e4"></path><path d="M669.5 353.2L658.2 354.2L656.2 368.1Z" fill="#fef4f4" stroke="#fef4f4"></path><path d="M669.5 353.2L673.8 328.1L658.2 354.2Z" fill="#fadada" stroke="#fadada"></path><path d="M674.5 402.5L669.5 353.2L656.2 368.1Z" fill="#fde9e9" stroke="#fde9e9"></path><path d="M218.5 273.8L228.2 315.9L259.2 235.8Z" fill="#fef4f4" stroke="#fef4f4"></path><path d="M513.4 502.5L570.4 486.7L535.1 469.4Z" fill="#fdefef" stroke="#fdefef"></path><path d="M657.2 193.8L627.4 150.3L614.8 236.6Z" fill="#ffffff" stroke="#ffffff"></path><path d="M674.8 284.8L657.2 193.8L614.8 236.6Z" fill="#f7caca" stroke="#f7caca"></path><path d="M457.7 515.5L508.7 516.8L495.1 493.8Z" fill="#fbdfdf" stroke="#fbdfdf"></path><path d="M513.4 502.5L508.7 516.8L570.4 486.7Z" fill="#f9d4d4" stroke="#f9d4d4"></path><path d="M212.8 337.2L250.5 405.5L309.2 353.2Z" fill="#fffafa" stroke="#fffafa"></path><path d="M419.9 77.2L350.9 84.5L346.6 107.3Z" fill="#fce4e4" stroke="#fce4e4"></path><path d="M292.6 95.5L294.6 156.6L314.2 140.3Z" fill="#fadada" stroke="#fadada"></path><path d="M230.8 435.5L285.6 457.5L288.8 445.4Z" fill="#ffffff" stroke="#ffffff"></path><path d="M288.8 445.4L285.6 457.5L295.2 445.4Z" fill="#f7caca" stroke="#f7caca"></path><path d="M321.6 502.8L368.3 458.5L295.2 445.4Z" fill="#f9d4d4" stroke="#f9d4d4"></path><path d="M239.5 234.9L218.5 273.8L259.2 235.8Z" fill="#f8cfcf" stroke="#f8cfcf"></path><path d="M613.8 88.5L522.1 68.2L542.1 111.3Z" fill="#fffafa" stroke="#fffafa"></path><path d="M542.1 111.3L522.1 68.2L479.1 98.5Z" fill="#f7caca" stroke="#f7caca"></path><path d="M464.3 15.2L435.7 56.3L479.1 98.5Z" fill="#f7caca" stroke="#f7caca"></path><path d="M419.9 77.2L400.3 55.3L350.9 84.5Z" fill="#fde9e9" stroke="#fde9e9"></path><path d="M221.8 187.8L216.8 242.6L239.5 234.9Z" fill="#f8cfcf" stroke="#f8cfcf"></path><path d="M239.5 234.9L216.8 242.6L218.5 273.8Z" fill="#f7caca" stroke="#f7caca"></path><path d="M221.8 187.8L259.2 235.8L273.6 177.8Z" fill="#fce4e4" stroke="#fce4e4"></path><path d="M350.6 504.7L399.9 529.8L421.9 498.7Z" fill="#fde9e9" stroke="#fde9e9"></path><path d="M457.7 515.5L474.3 558.7L508.7 516.8Z" fill="#fadada" stroke="#fadada"></path><path d="M674.5 402.5L656.2 368.1L646.2 397.4Z" fill="#fffafa" stroke="#fffafa"></path><path d="M674.5 402.5L692.5 330.9L669.5 353.2Z" fill="#f8cfcf" stroke="#f8cfcf"></path><path d="M669.5 353.2L692.5 330.9L673.8 328.1Z" fill="#f8cfcf" stroke="#f8cfcf"></path><path d="M673.8 328.1L692.5 330.9L674.8 284.8Z" fill="#f9d4d4" stroke="#f9d4d4"></path><path d="M723.2 215.6L666.5 174.5L657.2 193.8Z" fill="#fffafa" stroke="#fffafa"></path><path d="M208.5 295.1L212.8 337.2L228.2 315.9Z" fill="#fadada" stroke="#fadada"></path><path d="M228.2 315.9L212.8 337.2L309.2 353.2Z" fill="#fde9e9" stroke="#fde9e9"></path><path d="M208.5 295.1L228.2 315.9L218.5 273.8Z" fill="#fffafa" stroke="#fffafa"></path><path d="M131.7 268.9L208.5 295.1L218.5 273.8Z" fill="#f7caca" stroke="#f7caca"></path><path d="M435.7 56.3L400.3 55.3L419.9 77.2Z" fill="#fef4f4" stroke="#fef4f4"></path><path d="M657.2 193.8L666.5 174.5L627.4 150.3Z" fill="#fdefef" stroke="#fdefef"></path><path d="M627.4 150.3L613.8 88.5L573.4 169.5Z" fill="#fce4e4" stroke="#fce4e4"></path><path d="M723.2 215.6L657.2 193.8L674.8 284.8Z" fill="#f9d4d4" stroke="#f9d4d4"></path><path d="M570.4 486.7L611.2 482.5L579.1 412.5Z" fill="#fadada" stroke="#fadada"></path><path d="M640.8 405.5L674.5 402.5L646.2 397.4Z" fill="#f8cfcf" stroke="#f8cfcf"></path><path d="M591.8 522.7L611.2 482.5L570.4 486.7Z" fill="#fbdfdf" stroke="#fbdfdf"></path><path d="M285.6 457.5L321.6 502.8L295.2 445.4Z" fill="#fef4f4" stroke="#fef4f4"></path><path d="M350.6 504.7L337.2 559.7L399.9 529.8Z" fill="#f9d4d4" stroke="#f9d4d4"></path><path d="M696.9 451.4L674.5 402.5L640.8 405.5Z" fill="#ffffff" stroke="#ffffff"></path><path d="M292.6 95.5L314.2 140.3L325.9 115.3Z" fill="#fffafa" stroke="#fffafa"></path><path d="M248.2 153.6L221.8 187.8L273.6 177.8Z" fill="#f8cfcf" stroke="#f8cfcf"></path><path d="M178.8 357.1L195.8 335.9L167.1 349.2Z" fill="#f9d4d4" stroke="#f9d4d4"></path><path d="M287.2 82.2L292.6 95.5L350.9 84.5Z" fill="#fffafa" stroke="#fffafa"></path><path d="M350.9 84.5L292.6 95.5L325.9 115.3Z" fill="#f7caca" stroke="#f7caca"></path><path d="M248.2 153.6L203.8 166.5L221.8 187.8Z" fill="#fde9e9" stroke="#fde9e9"></path><path d="M716.9 313.9L708.9 290.8L692.5 330.9Z" fill="#fde9e9" stroke="#fde9e9"></path><path d="M692.5 330.9L708.9 290.8L674.8 284.8Z" fill="#f8cfcf" stroke="#f8cfcf"></path><path d="M167.5 222.6L218.5 273.8L216.8 242.6Z" fill="#fdefef" stroke="#fdefef"></path><path d="M208.5 295.1L195.8 335.9L212.8 337.2Z" fill="#fef4f4" stroke="#fef4f4"></path><path d="M212.8 337.2L178.8 357.1L250.5 405.5Z" fill="#fef4f4" stroke="#fef4f4"></path><path d="M250.5 405.5L230.8 435.5L288.8 445.4Z" fill="#ffffff" stroke="#ffffff"></path><path d="M647.8 89.3L613.8 88.5L627.4 150.3Z" fill="#ffffff" stroke="#ffffff"></path><path d="M193.1 432.4L230.8 435.5L250.5 405.5Z" fill="#fffafa" stroke="#fffafa"></path><path d="M285.6 457.5L234.5 474.7L321.6 502.8Z" fill="#fce4e4" stroke="#fce4e4"></path><path d="M742.9 328.1L716.9 313.9L692.5 330.9Z" fill="#fadada" stroke="#fadada"></path><path d="M437.3 584.8L457.7 515.5L399.9 529.8Z" fill="#f7caca" stroke="#f7caca"></path><path d="M437.3 584.8L474.3 558.7L457.7 515.5Z" fill="#fffafa" stroke="#fffafa"></path><path d="M508.7 516.8L591.8 522.7L570.4 486.7Z" fill="#fef4f4" stroke="#fef4f4"></path><path d="M581.4 558.8L591.8 522.7L508.7 516.8Z" fill="#fef4f4" stroke="#fef4f4"></path><path d="M611.2 482.5L696.9 451.4L616.8 421.4Z" fill="#ffffff" stroke="#ffffff"></path><path d="M294.6 31.2L287.2 82.2L350.9 84.5Z" fill="#fef4f4" stroke="#fef4f4"></path><path d="M292.6 95.5L287.2 82.2L248.2 153.6Z" fill="#fce4e4" stroke="#fce4e4"></path><path d="M591.8 522.7L610.8 515.8L611.2 482.5Z" fill="#fbdfdf" stroke="#fbdfdf"></path><path d="M486.3 0L464.3 15.2L522.1 68.2Z" fill="#f9d4d4" stroke="#f9d4d4"></path><path d="M522.1 68.2L464.3 15.2L479.1 98.5Z" fill="#fadada" stroke="#fadada"></path><path d="M435.7 56.3L431.7 0L400.3 55.3Z" fill="#fadada" stroke="#fadada"></path><path d="M400.3 55.3L365.9 0L350.9 84.5Z" fill="#f8cfcf" stroke="#f8cfcf"></path><path d="M164.1 139.6L203.8 166.5L248.2 153.6Z" fill="#f8cfcf" stroke="#f8cfcf"></path><path d="M221.8 187.8L188.1 192.5L216.8 242.6Z" fill="#fde9e9" stroke="#fde9e9"></path><path d="M167.1 349.2L195.8 335.9L208.5 295.1Z" fill="#fffafa" stroke="#fffafa"></path><path d="M195.8 335.9L178.8 357.1L212.8 337.2Z" fill="#f7caca" stroke="#f7caca"></path><path d="M739.5 235.6L723.2 215.6L708.9 290.8Z" fill="#f8cfcf" stroke="#f8cfcf"></path><path d="M708.9 290.8L723.2 215.6L674.8 284.8Z" fill="#f9d4d4" stroke="#f9d4d4"></path><path d="M675.2 119.3L647.8 89.3L627.4 150.3Z" fill="#f8cfcf" stroke="#f8cfcf"></path><path d="M742.9 328.1L734.5 278.1L716.9 313.9Z" fill="#ffffff" stroke="#ffffff"></path><path d="M716.9 313.9L734.5 278.1L708.9 290.8Z" fill="#f7caca" stroke="#f7caca"></path><path d="M675.2 119.3L627.4 150.3L666.5 174.5Z" fill="#fef4f4" stroke="#fef4f4"></path><path d="M531.1 0L486.3 0L522.1 68.2Z" fill="#fffafa" stroke="#fffafa"></path><path d="M734.5 191.8L675.2 119.3L666.5 174.5Z" fill="#fef4f4" stroke="#fef4f4"></path><path d="M193.1 432.4L234.5 474.7L230.8 435.5Z" fill="#fdefef" stroke="#fdefef"></path><path d="M230.8 435.5L234.5 474.7L285.6 457.5Z" fill="#ffffff" stroke="#ffffff"></path><path d="M321.6 502.8L337.2 559.7L350.6 504.7Z" fill="#fbdfdf" stroke="#fbdfdf"></path><path d="M203.8 166.5L188.1 192.5L221.8 187.8Z" fill="#fdefef" stroke="#fdefef"></path><path d="M288.2 600L337.2 559.7L321.6 502.8Z" fill="#fef4f4" stroke="#fef4f4"></path><path d="M666.2 499.7L696.9 451.4L611.2 482.5Z" fill="#fdefef" stroke="#fdefef"></path><path d="M674.5 402.5L742.9 328.1L692.5 330.9Z" fill="#f7caca" stroke="#f7caca"></path><path d="M131.7 268.9L167.1 349.2L208.5 295.1Z" fill="#f8cfcf" stroke="#f8cfcf"></path><path d="M178.8 357.1L193.1 432.4L250.5 405.5Z" fill="#fadada" stroke="#fadada"></path><path d="M381.6 600L437.3 584.8L399.9 529.8Z" fill="#ffffff" stroke="#ffffff"></path><path d="M567.8 600L581.4 558.8L508.7 516.8Z" fill="#ffffff" stroke="#ffffff"></path><path d="M591.8 522.7L581.4 558.8L610.8 515.8Z" fill="#fffafa" stroke="#fffafa"></path><path d="M787.3 352.1L742.9 328.1L674.5 402.5Z" fill="#fde9e9" stroke="#fde9e9"></path><path d="M734.5 278.1L739.5 235.6L708.9 290.8Z" fill="#fdefef" stroke="#fdefef"></path><path d="M731.9 100.2L679.2 100.5L675.2 119.3Z" fill="#ffffff" stroke="#ffffff"></path><path d="M791.3 255.8L739.5 235.6L734.5 278.1Z" fill="#f9d4d4" stroke="#f9d4d4"></path><path d="M135.7 197.6L167.5 222.6L188.1 192.5Z" fill="#fffafa" stroke="#fffafa"></path><path d="M188.1 192.5L167.5 222.6L216.8 242.6Z" fill="#ffffff" stroke="#ffffff"></path><path d="M149.5 394.4L193.1 432.4L178.8 357.1Z" fill="#f8cfcf" stroke="#f8cfcf"></path><path d="M567.8 600L508.7 516.8L474.3 558.7Z" fill="#f7caca" stroke="#f7caca"></path><path d="M610.8 515.8L666.2 499.7L611.2 482.5Z" fill="#fef4f4" stroke="#fef4f4"></path><path d="M486.3 0L431.7 0L464.3 15.2Z" fill="#fbdfdf" stroke="#fbdfdf"></path><path d="M464.3 15.2L431.7 0L435.7 56.3Z" fill="#fce4e4" stroke="#fce4e4"></path><path d="M531.1 0L522.1 68.2L569.4 0Z" fill="#f9d4d4" stroke="#f9d4d4"></path><path d="M676.5 526.7L666.2 499.7L610.8 515.8Z" fill="#f9d4d4" stroke="#f9d4d4"></path><path d="M675.2 119.3L679.2 100.5L647.8 89.3Z" fill="#ffffff" stroke="#ffffff"></path><path d="M569.4 0L522.1 68.2L579.4 4.2Z" fill="#f7caca" stroke="#f7caca"></path><path d="M734.5 191.8L666.5 174.5L723.2 215.6Z" fill="#fbdfdf" stroke="#fbdfdf"></path><path d="M739.5 235.6L734.5 191.8L723.2 215.6Z" fill="#fce4e4" stroke="#fce4e4"></path><path d="M655.5 56.3L613.8 88.5L647.8 89.3Z" fill="#fef4f4" stroke="#fef4f4"></path><path d="M431.7 0L365.9 0L400.3 55.3Z" fill="#fbdfdf" stroke="#fbdfdf"></path><path d="M154.7 123.5L164.1 139.6L194.8 55.3Z" fill="#fadada" stroke="#fadada"></path><path d="M433.7 600L434.3 600L437.3 584.8Z" fill="#ffffff" stroke="#ffffff"></path><path d="M437.3 584.8L434.3 600L474.3 558.7Z" fill="#fadada" stroke="#fadada"></path><path d="M381.6 600L433.7 600L437.3 584.8Z" fill="#fadada" stroke="#fadada"></path><path d="M365.9 0L294.6 31.2L350.9 84.5Z" fill="#f7caca" stroke="#f7caca"></path><path d="M731.9 100.2L671.2 77.2L679.2 100.5Z" fill="#ffffff" stroke="#ffffff"></path><path d="M679.2 100.5L671.2 77.2L647.8 89.3Z" fill="#fef4f4" stroke="#fef4f4"></path><path d="M671.2 77.2L655.5 56.3L647.8 89.3Z" fill="#fffafa" stroke="#fffafa"></path><path d="M693.2 527.8L714.5 467.4L666.2 499.7Z" fill="#fbdfdf" stroke="#fbdfdf"></path><path d="M666.2 499.7L714.5 467.4L696.9 451.4Z" fill="#fffafa" stroke="#fffafa"></path><path d="M791.9 426.2L787.3 352.1L674.5 402.5Z" fill="#fce4e4" stroke="#fce4e4"></path><path d="M368.9 600L381.6 600L337.2 559.7Z" fill="#fde9e9" stroke="#fde9e9"></path><path d="M337.2 559.7L381.6 600L399.9 529.8Z" fill="#fde9e9" stroke="#fde9e9"></path><path d="M579.4 4.2L522.1 68.2L613.8 88.5Z" fill="#fce4e4" stroke="#fce4e4"></path><path d="M623.8 6.2L579.4 4.2L613.8 88.5Z" fill="#f9d4d4" stroke="#f9d4d4"></path><path d="M318.2 608.8L368.9 600L337.2 559.7Z" fill="#fffafa" stroke="#fffafa"></path><path d="M193.1 432.4L179.8 495.7L234.5 474.7Z" fill="#fef4f4" stroke="#fef4f4"></path><path d="M146.5 391.2L149.5 394.4L178.8 357.1Z" fill="#fffafa" stroke="#fffafa"></path><path d="M146.5 391.2L178.8 357.1L167.1 349.2Z" fill="#fbdfdf" stroke="#fbdfdf"></path><path d="M110.7 353.4L146.5 391.2L167.1 349.2Z" fill="#ffffff" stroke="#ffffff"></path><path d="M135.7 197.6L131.7 268.9L167.5 222.6Z" fill="#ffffff" stroke="#ffffff"></path><path d="M167.5 222.6L131.7 268.9L218.5 273.8Z" fill="#fadada" stroke="#fadada"></path><path d="M164.1 139.6L188.1 192.5L203.8 166.5Z" fill="#fde9e9" stroke="#fde9e9"></path><path d="M616.4 600L676.5 526.7L610.8 515.8Z" fill="#fadada" stroke="#fadada"></path><path d="M434.3 600L567.8 600L474.3 558.7Z" fill="#f7caca" stroke="#f7caca"></path><path d="M581.4 558.8L616.4 600L610.8 515.8Z" fill="#fde9e9" stroke="#fde9e9"></path><path d="M164.1 139.6L248.2 153.6L194.8 55.3Z" fill="#fadada" stroke="#fadada"></path><path d="M365.9 0L305.2 0L294.6 31.2Z" fill="#fce4e4" stroke="#fce4e4"></path><path d="M194.8 55.3L248.2 153.6L287.2 82.2Z" fill="#fce4e4" stroke="#fce4e4"></path><path d="M567.8 600L577.1 600L581.4 558.8Z" fill="#fffafa" stroke="#fffafa"></path><path d="M140.5 153.3L135.7 197.6L188.1 192.5Z" fill="#fffafa" stroke="#fffafa"></path><path d="M655.5 56.3L623.8 6.2L613.8 88.5Z" fill="#fffafa" stroke="#fffafa"></path><path d="M579.4 4.2L623.8 6.2L569.4 0Z" fill="#f7caca" stroke="#f7caca"></path><path d="M653.5 0L623.8 6.2L655.5 56.3Z" fill="#f7caca" stroke="#f7caca"></path><path d="M689.2 600L693.2 527.8L676.5 526.7Z" fill="#f9d4d4" stroke="#f9d4d4"></path><path d="M676.5 526.7L693.2 527.8L666.2 499.7Z" fill="#fef4f4" stroke="#fef4f4"></path><path d="M305.2 0L285.6 0L294.6 31.2Z" fill="#f9d4d4" stroke="#f9d4d4"></path><path d="M133.7 488.7L193.1 432.4L149.5 394.4Z" fill="#ffffff" stroke="#ffffff"></path><path d="M133.7 488.7L179.8 495.7L193.1 432.4Z" fill="#fadada" stroke="#fadada"></path><path d="M288.2 600L318.2 608.8L337.2 559.7Z" fill="#fde9e9" stroke="#fde9e9"></path><path d="M765.9 456.5L696.9 451.4L714.5 467.4Z" fill="#fadada" stroke="#fadada"></path><path d="M765.9 456.5L674.5 402.5L696.9 451.4Z" fill="#ffffff" stroke="#ffffff"></path><path d="M804.3 313.2L791.3 255.8L734.5 278.1Z" fill="#f7caca" stroke="#f7caca"></path><path d="M739.5 235.6L792.6 231.8L734.5 191.8Z" fill="#fde9e9" stroke="#fde9e9"></path><path d="M734.5 191.8L731.9 100.2L675.2 119.3Z" fill="#fce4e4" stroke="#fce4e4"></path><path d="M657.8 0L653.5 0L655.5 56.3Z" fill="#ffffff" stroke="#ffffff"></path><path d="M744.9 97.5L731.9 100.2L734.5 191.8Z" fill="#f9d4d4" stroke="#f9d4d4"></path><path d="M179.8 495.7L182.1 500.7L234.5 474.7Z" fill="#f8cfcf" stroke="#f8cfcf"></path><path d="M804.3 313.2L734.5 278.1L742.9 328.1Z" fill="#fffafa" stroke="#fffafa"></path><path d="M288.2 600L321.6 502.8L234.5 474.7Z" fill="#ffffff" stroke="#ffffff"></path><path d="M368.9 600L318.2 608.8L381.6 600Z" fill="#f9d4d4" stroke="#f9d4d4"></path><path d="M381.6 600L318.2 608.8L433.7 600Z" fill="#fbdfdf" stroke="#fbdfdf"></path><path d="M433.7 600L318.2 608.8L434.3 600Z" fill="#fbdfdf" stroke="#fbdfdf"></path><path d="M434.3 600L318.2 608.8L567.8 600Z" fill="#fdefef" stroke="#fdefef"></path><path d="M567.8 600L318.2 608.8L577.1 600Z" fill="#fce4e4" stroke="#fce4e4"></path><path d="M154.7 123.5L140.5 153.3L164.1 139.6Z" fill="#fde9e9" stroke="#fde9e9"></path><path d="M164.1 139.6L140.5 153.3L188.1 192.5Z" fill="#f8cfcf" stroke="#f8cfcf"></path><path d="M194.8 55.3L287.2 82.2L294.6 31.2Z" fill="#fef4f4" stroke="#fef4f4"></path><path d="M819.6 243.9L792.6 231.8L791.3 255.8Z" fill="#f8cfcf" stroke="#f8cfcf"></path><path d="M791.3 255.8L792.6 231.8L739.5 235.6Z" fill="#f9d4d4" stroke="#f9d4d4"></path><path d="M92.1 291.9L131.7 268.9L69.4 250.8Z" fill="#fde9e9" stroke="#fde9e9"></path><path d="M92.1 291.9L110.7 353.4L131.7 268.9Z" fill="#fef4f4" stroke="#fef4f4"></path><path d="M131.7 268.9L110.7 353.4L167.1 349.2Z" fill="#fce4e4" stroke="#fce4e4"></path><path d="M95.4 431.4L133.7 488.7L149.5 394.4Z" fill="#fbdfdf" stroke="#fbdfdf"></path><path d="M179.8 495.7L133.7 488.7L182.1 500.7Z" fill="#fadada" stroke="#fadada"></path><path d="M318.2 608.8L616.4 600L577.1 600Z" fill="#fffafa" stroke="#fffafa"></path><path d="M577.1 600L616.4 600L581.4 558.8Z" fill="#fbdfdf" stroke="#fbdfdf"></path><path d="M204.8 573.8L288.2 600L234.5 474.7Z" fill="#fbdfdf" stroke="#fbdfdf"></path><path d="M210.8 0L194.8 55.3L294.6 31.2Z" fill="#fbdfdf" stroke="#fbdfdf"></path><path d="M787.3 352.1L804.3 313.2L742.9 328.1Z" fill="#fadada" stroke="#fadada"></path><path d="M808.9 123.6L744.9 97.5L734.5 191.8Z" fill="#fbdfdf" stroke="#fbdfdf"></path><path d="M723.5 13.2L655.5 56.3L671.2 77.2Z" fill="#fbdfdf" stroke="#fbdfdf"></path><path d="M775.9 518.7L765.9 456.5L714.5 467.4Z" fill="#fce4e4" stroke="#fce4e4"></path><path d="M787.3 352.1L884.6 339.2L804.3 313.2Z" fill="#fde9e9" stroke="#fde9e9"></path><path d="M657.8 0L655.5 56.3L697.2 0Z" fill="#f8cfcf" stroke="#f8cfcf"></path><path d="M623.8 6.2L653.5 0L569.4 0Z" fill="#f7caca" stroke="#f7caca"></path><path d="M697.2 0L655.5 56.3L723.5 13.2Z" fill="#ffffff" stroke="#ffffff"></path><path d="M68.7 148.3L97.1 170.8L69.4 146.5Z" fill="#fce4e4" stroke="#fce4e4"></path><path d="M194.8 55.3L152.5 96.5L154.7 123.5Z" fill="#ffffff" stroke="#ffffff"></path><path d="M85.7 214.8L135.7 197.6L97.1 170.8Z" fill="#ffffff" stroke="#ffffff"></path><path d="M85.7 214.8L131.7 268.9L135.7 197.6Z" fill="#ffffff" stroke="#ffffff"></path><path d="M59.7 364.2L100.1 371.1L110.7 353.4Z" fill="#fadada" stroke="#fadada"></path><path d="M110.7 353.4L100.1 371.1L146.5 391.2Z" fill="#fce4e4" stroke="#fce4e4"></path><path d="M765.9 456.5L791.9 426.2L674.5 402.5Z" fill="#f7caca" stroke="#f7caca"></path><path d="M804.3 313.2L819.6 243.9L791.3 255.8Z" fill="#fce4e4" stroke="#fce4e4"></path><path d="M792.6 231.8L833.6 191.5L734.5 191.8Z" fill="#fef4f4" stroke="#fef4f4"></path><path d="M833.3 216.9L819.6 243.9L900 210.6Z" fill="#fffafa" stroke="#fffafa"></path><path d="M95.4 431.4L149.5 394.4L146.5 391.2Z" fill="#fdefef" stroke="#fdefef"></path><path d="M182.1 500.7L204.8 573.8L234.5 474.7Z" fill="#f7caca" stroke="#f7caca"></path><path d="M136.5 578.8L204.8 573.8L182.1 500.7Z" fill="#f7caca" stroke="#f7caca"></path><path d="M97.1 170.8L135.7 197.6L140.5 153.3Z" fill="#fef4f4" stroke="#fef4f4"></path><path d="M97.1 170.8L140.5 153.3L69.4 146.5Z" fill="#ffffff" stroke="#ffffff"></path><path d="M809.3 501.7L807.3 420.4L791.9 426.2Z" fill="#fadada" stroke="#fadada"></path><path d="M791.9 426.2L807.3 420.4L787.3 352.1Z" fill="#fadada" stroke="#fadada"></path><path d="M809.3 501.7L791.9 426.2L765.9 456.5Z" fill="#fffafa" stroke="#fffafa"></path><path d="M210.8 0L175.5 38.2L194.8 55.3Z" fill="#fef4f4" stroke="#fef4f4"></path><path d="M194.8 55.3L175.5 38.2L152.5 96.5Z" fill="#f9d4d4" stroke="#f9d4d4"></path><path d="M69.4 146.5L140.5 153.3L154.7 123.5Z" fill="#fef4f4" stroke="#fef4f4"></path><path d="M285.6 0L210.8 0L294.6 31.2Z" fill="#ffffff" stroke="#ffffff"></path><path d="M224.8 600L225.5 600L204.8 573.8Z" fill="#fffafa" stroke="#fffafa"></path><path d="M204.8 573.8L225.5 600L288.2 600Z" fill="#fde9e9" stroke="#fde9e9"></path><path d="M288.2 600L225.5 600L318.2 608.8Z" fill="#fdefef" stroke="#fdefef"></path><path d="M197.1 602.8L224.8 600L204.8 573.8Z" fill="#fef4f4" stroke="#fef4f4"></path><path d="M225.5 600L197.1 602.8L318.2 608.8Z" fill="#f7caca" stroke="#f7caca"></path><path d="M723.5 13.2L731.9 100.2L744.9 97.5Z" fill="#f9d4d4" stroke="#f9d4d4"></path><path d="M723.5 13.2L671.2 77.2L731.9 100.2Z" fill="#ffffff" stroke="#ffffff"></path><path d="M100.1 371.1L95.4 431.4L146.5 391.2Z" fill="#fadada" stroke="#fadada"></path><path d="M59.4 404.2L95.4 431.4L100.1 371.1Z" fill="#fce4e4" stroke="#fce4e4"></path><path d="M66.4 322.9L110.7 353.4L92.1 291.9Z" fill="#f7caca" stroke="#f7caca"></path><path d="M17.4 194.6L69.4 250.8L85.7 214.8Z" fill="#fce4e4" stroke="#fce4e4"></path><path d="M85.7 214.8L69.4 250.8L131.7 268.9Z" fill="#ffffff" stroke="#ffffff"></path><path d="M616.4 600L689.2 600L676.5 526.7Z" fill="#ffffff" stroke="#ffffff"></path><path d="M693.2 527.8L775.9 518.7L714.5 467.4Z" fill="#fdefef" stroke="#fdefef"></path><path d="M318.2 608.8L689.2 600L616.4 600Z" fill="#fef4f4" stroke="#fef4f4"></path><path d="M55.7 287.1L66.4 322.9L92.1 291.9Z" fill="#fde9e9" stroke="#fde9e9"></path><path d="M900 308.9L819.6 243.9L804.3 313.2Z" fill="#fdefef" stroke="#fdefef"></path><path d="M819.6 243.9L833.3 216.9L792.6 231.8Z" fill="#f8cfcf" stroke="#f8cfcf"></path><path d="M802.9 54.3L723.5 13.2L744.9 97.5Z" fill="#fce4e4" stroke="#fce4e4"></path><path d="M731.5 577.8L775.9 518.7L693.2 527.8Z" fill="#fadada" stroke="#fadada"></path><path d="M833.3 216.9L833.6 191.5L792.6 231.8Z" fill="#fadada" stroke="#fadada"></path><path d="M833.6 191.5L808.9 123.6L734.5 191.8Z" fill="#fde9e9" stroke="#fde9e9"></path><path d="M0 272.8L55.7 287.1L0 249.9Z" fill="#fce4e4" stroke="#fce4e4"></path><path d="M69.4 250.8L55.7 287.1L92.1 291.9Z" fill="#f8cfcf" stroke="#f8cfcf"></path><path d="M66.4 322.9L59.7 364.2L110.7 353.4Z" fill="#fdefef" stroke="#fdefef"></path><path d="M689.2 600L731.5 577.8L693.2 527.8Z" fill="#fef4f4" stroke="#fef4f4"></path><path d="M784.9 536.8L791.3 503.8L775.9 518.7Z" fill="#fde9e9" stroke="#fde9e9"></path><path d="M775.9 518.7L791.3 503.8L765.9 456.5Z" fill="#fce4e4" stroke="#fce4e4"></path><path d="M55.7 287.1L54.4 317.1L66.4 322.9Z" fill="#fde9e9" stroke="#fde9e9"></path><path d="M54.4 317.1L59.7 364.2L66.4 322.9Z" fill="#fde9e9" stroke="#fde9e9"></path><path d="M805.3 0L722.9 0L723.5 13.2Z" fill="#f9d4d4" stroke="#f9d4d4"></path><path d="M723.5 13.2L722.9 0L697.2 0Z" fill="#f9d4d4" stroke="#f9d4d4"></path><path d="M81.7 446.5L102.1 486.5L95.4 431.4Z" fill="#fffafa" stroke="#fffafa"></path><path d="M95.4 431.4L102.1 486.5L133.7 488.7Z" fill="#fef4f4" stroke="#fef4f4"></path><path d="M136.5 578.8L197.1 602.8L204.8 573.8Z" fill="#fdefef" stroke="#fdefef"></path><path d="M224.8 600L197.1 602.8L225.5 600Z" fill="#fce4e4" stroke="#fce4e4"></path><path d="M136.5 578.8L182.1 500.7L133.7 488.7Z" fill="#f9d4d4" stroke="#f9d4d4"></path><path d="M59.4 404.2L81.7 446.5L95.4 431.4Z" fill="#fdefef" stroke="#fdefef"></path><path d="M305.2 0L177.8 -2.8L285.6 0Z" fill="#fde9e9" stroke="#fde9e9"></path><path d="M285.6 0L177.8 -2.8L210.8 0Z" fill="#f9d4d4" stroke="#f9d4d4"></path><path d="M210.8 0L177.8 -2.8L175.5 38.2Z" fill="#fdefef" stroke="#fdefef"></path><path d="M69.4 146.5L154.7 123.5L80.1 75.2Z" fill="#fce4e4" stroke="#fce4e4"></path><path d="M365.9 0L177.8 -2.8L305.2 0Z" fill="#f9d4d4" stroke="#f9d4d4"></path><path d="M431.7 0L177.8 -2.8L365.9 0Z" fill="#f7caca" stroke="#f7caca"></path><path d="M486.3 0L177.8 -2.8L431.7 0Z" fill="#fce4e4" stroke="#fce4e4"></path><path d="M531.1 0L177.8 -2.8L486.3 0Z" fill="#fffafa" stroke="#fffafa"></path><path d="M569.4 0L177.8 -2.8L531.1 0Z" fill="#fffafa" stroke="#fffafa"></path><path d="M653.5 0L177.8 -2.8L569.4 0Z" fill="#fbdfdf" stroke="#fbdfdf"></path><path d="M657.8 0L177.8 -2.8L653.5 0Z" fill="#fadada" stroke="#fadada"></path><path d="M697.2 0L177.8 -2.8L657.8 0Z" fill="#fef4f4" stroke="#fef4f4"></path><path d="M722.9 0L177.8 -2.8L697.2 0Z" fill="#fef4f4" stroke="#fef4f4"></path><path d="M0 405.5L59.4 404.2L59.7 364.2Z" fill="#fde9e9" stroke="#fde9e9"></path><path d="M59.7 364.2L59.4 404.2L100.1 371.1Z" fill="#f8cfcf" stroke="#f8cfcf"></path><path d="M91.4 561.8L133.7 488.7L102.1 486.5Z" fill="#fdefef" stroke="#fdefef"></path><path d="M154.7 123.5L152.5 96.5L80.1 75.2Z" fill="#fffafa" stroke="#fffafa"></path><path d="M97.1 170.8L68.7 148.3L85.7 214.8Z" fill="#fffafa" stroke="#fffafa"></path><path d="M107.4 52.3L152.5 96.5L175.5 38.2Z" fill="#fadada" stroke="#fadada"></path><path d="M731.5 577.8L784.9 536.8L775.9 518.7Z" fill="#f7caca" stroke="#f7caca"></path><path d="M784.9 536.8L809.3 501.7L791.3 503.8Z" fill="#fbdfdf" stroke="#fbdfdf"></path><path d="M791.3 503.8L809.3 501.7L765.9 456.5Z" fill="#fffafa" stroke="#fffafa"></path><path d="M900 210.6L853.3 180.6L833.3 216.9Z" fill="#ffffff" stroke="#ffffff"></path><path d="M833.6 191.5L853.3 180.6L808.9 123.6Z" fill="#fdefef" stroke="#fdefef"></path><path d="M823.3 86.3L802.9 54.3L744.9 97.5Z" fill="#f9d4d4" stroke="#f9d4d4"></path><path d="M833.3 216.9L853.3 180.6L833.6 191.5Z" fill="#fce4e4" stroke="#fce4e4"></path><path d="M884.6 339.2L787.3 352.1L807.3 420.4Z" fill="#fbdfdf" stroke="#fbdfdf"></path><path d="M148.5 0L107.4 52.3L175.5 38.2Z" fill="#fffafa" stroke="#fffafa"></path><path d="M177.8 -2.8L148.5 0L175.5 38.2Z" fill="#f9d4d4" stroke="#f9d4d4"></path><path d="M823.3 86.3L744.9 97.5L808.9 123.6Z" fill="#fffafa" stroke="#fffafa"></path><path d="M837.6 83.3L823.3 86.3L845.3 94.5Z" fill="#f8cfcf" stroke="#f8cfcf"></path><path d="M91.4 561.8L136.5 578.8L133.7 488.7Z" fill="#f7caca" stroke="#f7caca"></path><path d="M78.4 498.7L102.1 486.5L81.7 446.5Z" fill="#fbdfdf" stroke="#fbdfdf"></path><path d="M-10.6 486.5L78.4 498.7L81.7 446.5Z" fill="#fdefef" stroke="#fdefef"></path><path d="M90.1 34.3L80.1 75.2L107.4 52.3Z" fill="#f8cfcf" stroke="#f8cfcf"></path><path d="M107.4 52.3L80.1 75.2L152.5 96.5Z" fill="#fadada" stroke="#fadada"></path><path d="M0 145.6L17.4 194.6L68.7 148.3Z" fill="#f7caca" stroke="#f7caca"></path><path d="M784.9 536.8L818.6 548.8L809.3 501.7Z" fill="#f7caca" stroke="#f7caca"></path><path d="M731.5 577.8L759.5 600L784.9 536.8Z" fill="#f8cfcf" stroke="#f8cfcf"></path><path d="M689.2 600L759.5 600L731.5 577.8Z" fill="#ffffff" stroke="#ffffff"></path><path d="M318.2 608.8L759.5 600L689.2 600Z" fill="#f8cfcf" stroke="#f8cfcf"></path><path d="M900 344.1L884.6 339.2L900 368.4Z" fill="#f9d4d4" stroke="#f9d4d4"></path><path d="M884.6 339.2L886.6 328.1L804.3 313.2Z" fill="#fffafa" stroke="#fffafa"></path><path d="M845.3 94.5L823.3 86.3L808.9 123.6Z" fill="#fdefef" stroke="#fdefef"></path><path d="M823.3 86.3L837.6 83.3L802.9 54.3Z" fill="#fffafa" stroke="#fffafa"></path><path d="M845.3 94.5L808.9 123.6L886.6 138.6Z" fill="#fde9e9" stroke="#fde9e9"></path><path d="M177.8 -2.8L125.1 0L148.5 0Z" fill="#ffffff" stroke="#ffffff"></path><path d="M148.5 0L125.1 0L107.4 52.3Z" fill="#ffffff" stroke="#ffffff"></path><path d="M886.6 138.6L808.9 123.6L853.3 180.6Z" fill="#fce4e4" stroke="#fce4e4"></path><path d="M125.1 0L90.1 34.3L107.4 52.3Z" fill="#fadada" stroke="#fadada"></path><path d="M782.9 600L818.6 548.8L784.9 536.8Z" fill="#f7caca" stroke="#f7caca"></path><path d="M900 368.4L884.6 339.2L807.3 420.4Z" fill="#fadada" stroke="#fadada"></path><path d="M68.7 148.3L17.4 194.6L85.7 214.8Z" fill="#f7caca" stroke="#f7caca"></path><path d="M55.7 287.1L0 308.1L54.4 317.1Z" fill="#fef4f4" stroke="#fef4f4"></path><path d="M54.4 317.1L0 308.1L59.7 364.2Z" fill="#ffffff" stroke="#ffffff"></path><path d="M0 145.6L68.7 148.3L69.4 146.5Z" fill="#f9d4d4" stroke="#f9d4d4"></path><path d="M0 145.6L69.4 146.5L0 109.5Z" fill="#ffffff" stroke="#ffffff"></path><path d="M900 315.2L900 308.9L886.6 328.1Z" fill="#fef4f4" stroke="#fef4f4"></path><path d="M886.6 328.1L900 308.9L804.3 313.2Z" fill="#fadada" stroke="#fadada"></path><path d="M900 315.2L886.6 328.1L900 344.1Z" fill="#fadada" stroke="#fadada"></path><path d="M900 344.1L886.6 328.1L884.6 339.2Z" fill="#f9d4d4" stroke="#f9d4d4"></path><path d="M78.4 498.7L91.4 561.8L102.1 486.5Z" fill="#ffffff" stroke="#ffffff"></path><path d="M136.5 578.8L98.1 600L197.1 602.8Z" fill="#fde9e9" stroke="#fde9e9"></path><path d="M900 368.4L807.3 420.4L893.6 442.4Z" fill="#f9d4d4" stroke="#f9d4d4"></path><path d="M759.5 600L782.9 600L784.9 536.8Z" fill="#fef4f4" stroke="#fef4f4"></path><path d="M318.2 608.8L782.9 600L759.5 600Z" fill="#f7caca" stroke="#f7caca"></path><path d="M0 272.8L0 308.1L55.7 287.1Z" fill="#ffffff" stroke="#ffffff"></path><path d="M59.4 404.2L0 413.4L81.7 446.5Z" fill="#fef4f4" stroke="#fef4f4"></path><path d="M47.7 588.8L86.4 600L91.4 561.8Z" fill="#fef4f4" stroke="#fef4f4"></path><path d="M0 249.9L55.7 287.1L69.4 250.8Z" fill="#fde9e9" stroke="#fde9e9"></path><path d="M859.6 503.7L807.3 420.4L809.3 501.7Z" fill="#fdefef" stroke="#fdefef"></path><path d="M859.6 503.7L900 540.8L900 514.5Z" fill="#fce4e4" stroke="#fce4e4"></path><path d="M818.6 548.8L849.3 514.5L809.3 501.7Z" fill="#fbdfdf" stroke="#fbdfdf"></path><path d="M17.4 194.6L0 249.9L69.4 250.8Z" fill="#fadada" stroke="#fadada"></path><path d="M900 308.9L900 210.6L819.6 243.9Z" fill="#fce4e4" stroke="#fce4e4"></path><path d="M849.3 514.5L859.6 503.7L809.3 501.7Z" fill="#f7caca" stroke="#f7caca"></path><path d="M897.6 476.5L859.6 503.7L900 514.5Z" fill="#fdefef" stroke="#fdefef"></path><path d="M824.6 0L802.9 54.3L862.3 52.2Z" fill="#ffffff" stroke="#ffffff"></path><path d="M824.6 0L805.3 0L802.9 54.3Z" fill="#fce4e4" stroke="#fce4e4"></path><path d="M802.9 54.3L805.3 0L723.5 13.2Z" fill="#ffffff" stroke="#ffffff"></path><path d="M722.9 0L805.3 0L177.8 -2.8Z" fill="#fffafa" stroke="#fffafa"></path><path d="M802.9 54.3L837.6 83.3L862.3 52.2Z" fill="#fbdfdf" stroke="#fbdfdf"></path><path d="M900 210.6L900 188.8L853.3 180.6Z" fill="#fadada" stroke="#fadada"></path><path d="M900 188.8L886.6 138.6L853.3 180.6Z" fill="#fbdfdf" stroke="#fbdfdf"></path><path d="M859.6 503.7L893.6 442.4L807.3 420.4Z" fill="#fde9e9" stroke="#fde9e9"></path><path d="M0 308.1L0 405.5L59.7 364.2Z" fill="#ffffff" stroke="#ffffff"></path><path d="M0 405.5L0 408.2L59.4 404.2Z" fill="#f7caca" stroke="#f7caca"></path><path d="M0 408.2L0 413.4L59.4 404.2Z" fill="#f7caca" stroke="#f7caca"></path><path d="M86.4 600L98.1 600L91.4 561.8Z" fill="#fdefef" stroke="#fdefef"></path><path d="M91.4 561.8L98.1 600L136.5 578.8Z" fill="#fde9e9" stroke="#fde9e9"></path><path d="M197.1 602.8L37.7 600L318.2 608.8Z" fill="#fef4f4" stroke="#fef4f4"></path><path d="M862.3 52.2L837.6 83.3L877.6 72.2Z" fill="#ffffff" stroke="#ffffff"></path><path d="M805.3 0L824.6 0L177.8 -2.8Z" fill="#fdefef" stroke="#fdefef"></path><path d="M877.6 72.2L837.6 83.3L845.3 94.5Z" fill="#fadada" stroke="#fadada"></path><path d="M0 109.5L69.4 146.5L80.1 75.2Z" fill="#f9d4d4" stroke="#f9d4d4"></path><path d="M17.4 194.6L0 145.6L0 249.9Z" fill="#fffafa" stroke="#fffafa"></path><path d="M897.6 476.5L893.6 442.4L859.6 503.7Z" fill="#f8cfcf" stroke="#f8cfcf"></path><path d="M897.6 476.5L900 458.7L893.6 442.4Z" fill="#fef4f4" stroke="#fef4f4"></path><path d="M893.6 442.4L900 458.7L900 368.4Z" fill="#fbdfdf" stroke="#fbdfdf"></path><path d="M900 188.8L900 128.3L886.6 138.6Z" fill="#fde9e9" stroke="#fde9e9"></path><path d="M886.6 138.6L900 117.5L845.3 94.5Z" fill="#fadada" stroke="#fadada"></path><path d="M47.7 588.8L91.4 561.8L0 551.7Z" fill="#fce4e4" stroke="#fce4e4"></path><path d="M98.1 600L86.4 600L197.1 602.8Z" fill="#ffffff" stroke="#ffffff"></path><path d="M900 117.5L877.6 72.2L845.3 94.5Z" fill="#fef4f4" stroke="#fef4f4"></path><path d="M862.3 52.2L900 0L824.6 0Z" fill="#fadada" stroke="#fadada"></path><path d="M125.1 0L74.4 -0.8L90.1 34.3Z" fill="#fbdfdf" stroke="#fbdfdf"></path><path d="M90.1 34.3L52.7 7.2L80.1 75.2Z" fill="#fde9e9" stroke="#fde9e9"></path><path d="M177.8 -2.8L74.4 -0.8L125.1 0Z" fill="#fef4f4" stroke="#fef4f4"></path><path d="M900 128.3L900 117.5L886.6 138.6Z" fill="#fffafa" stroke="#fffafa"></path><path d="M900 540.8L849.3 514.5L818.6 548.8Z" fill="#ffffff" stroke="#ffffff"></path><path d="M0 92.3L0 109.5L80.1 75.2Z" fill="#fffafa" stroke="#fffafa"></path><path d="M74.4 -0.8L52.7 7.2L90.1 34.3Z" fill="#ffffff" stroke="#ffffff"></path><path d="M74.4 -0.8L53.7 0L52.7 7.2Z" fill="#f9d4d4" stroke="#f9d4d4"></path><path d="M0 79.2L0 92.3L80.1 75.2Z" fill="#fde9e9" stroke="#fde9e9"></path><path d="M0 79.2L80.1 75.2L52.7 7.2Z" fill="#fdefef" stroke="#fdefef"></path><path d="M900 117.5L900 79.2L877.6 72.2Z" fill="#fffafa" stroke="#fffafa"></path><path d="M877.6 72.2L900 0L862.3 52.2Z" fill="#ffffff" stroke="#ffffff"></path><path d="M318.2 608.8L844.3 600L782.9 600Z" fill="#fdefef" stroke="#fdefef"></path><path d="M782.9 600L844.3 600L818.6 548.8Z" fill="#fef4f4" stroke="#fef4f4"></path><path d="M900 540.8L859.6 503.7L849.3 514.5Z" fill="#f9d4d4" stroke="#f9d4d4"></path><path d="M897.6 476.5L900 514.5L900 458.7Z" fill="#f7caca" stroke="#f7caca"></path><path d="M0 551.7L91.4 561.8L78.4 498.7Z" fill="#f7caca" stroke="#f7caca"></path><path d="M11.4 0L0 79.2L52.7 7.2Z" fill="#f7caca" stroke="#f7caca"></path><path d="M0 413.4L-10.6 486.5L81.7 446.5Z" fill="#f9d4d4" stroke="#f9d4d4"></path><path d="M0 408.2L-10.6 486.5L0 413.4Z" fill="#ffffff" stroke="#ffffff"></path><path d="M0 405.5L-10.6 486.5L0 408.2Z" fill="#fef4f4" stroke="#fef4f4"></path><path d="M0 308.1L-10.6 486.5L0 405.5Z" fill="#f9d4d4" stroke="#f9d4d4"></path><path d="M0 272.8L-10.6 486.5L0 308.1Z" fill="#fce4e4" stroke="#fce4e4"></path><path d="M0 249.9L-10.6 486.5L0 272.8Z" fill="#ffffff" stroke="#ffffff"></path><path d="M0 145.6L-10.6 486.5L0 249.9Z" fill="#f7caca" stroke="#f7caca"></path><path d="M0 109.5L-10.6 486.5L0 145.6Z" fill="#fdefef" stroke="#fdefef"></path><path d="M0 92.3L-10.6 486.5L0 109.5Z" fill="#f8cfcf" stroke="#f8cfcf"></path><path d="M0 79.2L-10.6 486.5L0 92.3Z" fill="#f8cfcf" stroke="#f8cfcf"></path><path d="M844.3 600L900 540.8L818.6 548.8Z" fill="#f7caca" stroke="#f7caca"></path><path d="M0 590.8L37.7 600L47.7 588.8Z" fill="#f7caca" stroke="#f7caca"></path><path d="M47.7 588.8L37.7 600L86.4 600Z" fill="#fdefef" stroke="#fdefef"></path><path d="M86.4 600L37.7 600L197.1 602.8Z" fill="#fadada" stroke="#fadada"></path><path d="M-10.6 486.5L0 551.7L78.4 498.7Z" fill="#fbdfdf" stroke="#fbdfdf"></path><path d="M53.7 0L11.4 0L52.7 7.2Z" fill="#fffafa" stroke="#fffafa"></path><path d="M74.4 -0.8L11.4 0L53.7 0Z" fill="#fde9e9" stroke="#fde9e9"></path><path d="M0 0L11.4 0L74.4 -0.8Z" fill="#fffafa" stroke="#fffafa"></path><path d="M900 79.2L900 0L877.6 72.2Z" fill="#f7caca" stroke="#f7caca"></path><path d="M824.6 0L900 0L177.8 -2.8Z" fill="#fadada" stroke="#fadada"></path><path d="M177.8 -2.8L0 0L74.4 -0.8Z" fill="#fadada" stroke="#fadada"></path><path d="M11.4 0L0 0L0 79.2Z" fill="#fadada" stroke="#fadada"></path><path d="M0 79.2L0 0L-10.6 486.5Z" fill="#f9d4d4" stroke="#f9d4d4"></path><path d="M-10.6 486.5L0 590.8L0 551.7Z" fill="#f8cfcf" stroke="#f8cfcf"></path><path d="M0 551.7L0 590.8L47.7 588.8Z" fill="#fdefef" stroke="#fdefef"></path><path d="M318.2 608.8L900 600L844.3 600Z" fill="#f8cfcf" stroke="#f8cfcf"></path><path d="M844.3 600L900 600L900 540.8Z" fill="#ffffff" stroke="#ffffff"></path><path d="M-10.6 486.5L0 600L0 590.8Z" fill="#fdefef" stroke="#fdefef"></path><path d="M0 590.8L0 600L37.7 600Z" fill="#f8cfcf" stroke="#f8cfcf"></path><path d="M37.7 600L0 600L318.2 608.8Z" fill="#fbdfdf" stroke="#fbdfdf"></path><path d="M318.2 608.8L910.6 600L900 600Z" fill="#fde9e9" stroke="#fde9e9"></path><path d="M900 600L910.6 600L900 540.8Z" fill="#ffffff" stroke="#ffffff"></path><path d="M900 540.8L910.6 600L900 514.5Z" fill="#fbdfdf" stroke="#fbdfdf"></path><path d="M900 514.5L910.6 600L900 458.7Z" fill="#fde9e9" stroke="#fde9e9"></path><path d="M900 458.7L910.6 600L900 368.4Z" fill="#ffffff" stroke="#ffffff"></path><path d="M900 368.4L910.6 600L900 344.1Z" fill="#f7caca" stroke="#f7caca"></path><path d="M900 344.1L910.6 600L900 315.2Z" fill="#fce4e4" stroke="#fce4e4"></path><path d="M900 315.2L910.6 600L900 308.9Z" fill="#fde9e9" stroke="#fde9e9"></path><path d="M900 308.9L910.6 600L900 210.6Z" fill="#f8cfcf" stroke="#f8cfcf"></path><path d="M900 210.6L910.6 600L900 188.8Z" fill="#fbdfdf" stroke="#fbdfdf"></path><path d="M900 188.8L910.6 600L900 128.3Z" fill="#fef4f4" stroke="#fef4f4"></path><path d="M900 128.3L910.6 600L900 117.5Z" fill="#fce4e4" stroke="#fce4e4"></path><path d="M900 117.5L910.6 600L900 79.2Z" fill="#fadada" stroke="#fadada"></path><path d="M900 79.2L910.6 600L900 0Z" fill="#fce4e4" stroke="#fce4e4"></path></g></svg>